<svg width="75" height="57" viewBox="0 0 75 57" fill="none" xmlns="http://www.w3.org/2000/svg">
<g clip-path="url(#clip0)">
<path d="M35.7401 4.89194C32.7242 5.30943 29.9514 6.80583 27.9327 9.10502C25.8949 11.4259 24.7729 14.4066 24.7729 17.4986V17.8456H22.562V17.4986C22.562 10.4805 16.853 4.77148 9.83496 4.77148C9.37399 4.77148 9 5.14504 9 5.60645C9 6.06741 9.37399 6.44141 9.83496 6.44141C15.9319 6.44141 20.8921 11.4016 20.8921 17.4986V17.8456H18.0545C17.3383 17.8456 16.7556 18.4283 16.7556 19.1446V21.4176C16.7556 22.1339 17.3383 22.7166 18.0545 22.7166H19.1022V24.0278C19.1022 24.5914 19.561 25.0502 20.125 25.0502H20.7721V28.9071C20.7721 29.3685 21.1461 29.742 21.607 29.742C22.0684 29.742 22.442 29.3685 22.442 28.9071V25.0502H25.3174V43.4041H22.442V32.2469C22.442 31.7859 22.0684 31.412 21.607 31.412C21.1461 31.412 20.7721 31.7859 20.7721 32.2469V43.4041H20.6012C19.9197 43.4041 19.3648 43.9585 19.3648 44.6404V45.8129H18.6608C17.9054 45.8129 17.2909 46.4273 17.2909 47.1832V48.6996C17.2909 49.4162 17.8436 50.0059 18.5451 50.0651L17.6862 54.8004C17.6301 55.1101 17.7136 55.4258 17.9149 55.6671C18.1163 55.9085 18.4124 56.0468 18.7269 56.0468H29.0325C29.347 56.0468 29.6427 55.9085 29.8445 55.6671C30.0458 55.4258 30.1293 55.1101 30.0732 54.8004L29.2143 50.0651C29.9158 50.0059 30.4685 49.4162 30.4685 48.6996V47.1832C30.4685 46.4273 29.854 45.8129 29.0982 45.8129H28.3946V44.6404C28.3946 43.9585 27.8397 43.4041 27.1582 43.4041H26.9873V25.0502H27.6344C28.198 25.0502 28.6568 24.5914 28.6568 24.0278V22.7166H29.7049C30.4211 22.7166 31.0038 22.1339 31.0038 21.4176V19.1446C31.0038 18.4283 30.4211 17.8456 29.7049 17.8456H26.4429V17.4986C26.4429 14.8123 27.4174 12.2226 29.1878 10.2066C30.9416 8.20874 33.35 6.9089 35.9688 6.54621C36.4259 6.48315 36.7446 6.06176 36.6816 5.60471C36.6181 5.14765 36.1967 4.82845 35.7401 4.89194ZM19.4601 54.3769L20.2411 50.0699H27.5183L28.2993 54.3769H19.4601ZM28.7986 48.3999H18.9604V47.4828H28.7986V48.3999ZM21.0347 45.8129V45.074H26.7247V45.8129H21.0347ZM29.3339 21.0467H28.5959C27.7088 21.0467 26.9869 21.7686 26.9869 22.6557V23.3802H20.7721V22.6557C20.7721 21.7686 20.0502 21.0467 19.163 21.0467H18.4251V19.5155H29.3339V21.0467Z" fill="black"/>
<path d="M50.6011 10.327C50.7476 10.5936 51.0281 10.7597 51.3325 10.7597C51.6369 10.7597 51.9174 10.5936 52.064 10.327C54.6976 5.5364 59.7174 2.56055 65.165 2.56055C65.6264 2.56055 66 2.18655 66 1.72559C66 1.26462 65.6264 0.890625 65.165 0.890625C59.5804 0.890625 54.4006 3.70253 51.3325 8.31482C48.2645 3.70253 43.0847 0.890625 37.5 0.890625C31.9153 0.890625 26.7355 3.70253 23.6675 8.31482C20.5994 3.70253 15.4196 0.890625 9.83496 0.890625C9.37399 0.890625 9 1.26462 9 1.72559C9 2.18655 9.37399 2.56055 9.83496 2.56055C15.2826 2.56055 20.3024 5.5364 22.936 10.327C23.0826 10.5936 23.3631 10.7597 23.6675 10.7597C23.9719 10.7597 24.2524 10.5936 24.3989 10.327C27.0325 5.5364 32.0523 2.56055 37.5 2.56055C42.9477 2.56055 47.9675 5.5364 50.6011 10.327Z" fill="black"/>
<path d="M65.1651 4.77148C58.1475 4.77148 52.438 10.4805 52.438 17.4986V17.8456H50.2271V17.4986C50.2271 14.4066 49.1052 11.4259 47.0673 9.10502C45.0486 6.80583 42.2759 5.30943 39.26 4.89194C38.8043 4.82889 38.382 5.14765 38.3185 5.60471C38.2554 6.06133 38.5742 6.48315 39.0313 6.54621C41.6501 6.9089 44.0584 8.20874 45.8123 10.2066C47.5827 12.2226 48.5572 14.8123 48.5572 17.4986V17.8456H45.2952C44.579 17.8456 43.9962 18.4283 43.9962 19.1446V21.4176C43.9962 22.1339 44.579 22.7166 45.2952 22.7166H46.3428V24.0278C46.3428 24.5914 46.8016 25.0502 47.3652 25.0502H48.0127V36.61C48.0127 37.071 48.3863 37.445 48.8477 37.445C49.3091 37.445 49.6827 37.071 49.6827 36.61V25.0502H52.5581V43.4041H49.6827V39.9499C49.6827 39.4889 49.3091 39.1149 48.8477 39.1149C48.3863 39.1149 48.0127 39.4889 48.0127 39.9499V43.4041H47.8418C47.16 43.4041 46.6055 43.9585 46.6055 44.6404V45.8129H45.9019C45.146 45.8129 44.5316 46.4273 44.5316 47.1832V48.6996C44.5316 49.4162 45.0843 50.0059 45.7858 50.0651L44.9269 54.8004C44.8708 55.1101 44.9538 55.4258 45.1556 55.6671C45.357 55.9085 45.6531 56.0468 45.9675 56.0468H56.2732C56.5876 56.0468 56.8833 55.9085 57.0851 55.6671C57.2865 55.4258 57.37 55.1101 57.3139 54.8004L56.455 50.0651C57.1564 50.0059 57.7096 49.4162 57.7096 48.6996V47.1832C57.7096 46.4273 57.0947 45.8129 56.3393 45.8129H55.6353V44.6404C55.6353 43.9585 55.0808 43.4041 54.3989 43.4041H54.228V25.0502H54.8755C55.4391 25.0502 55.8979 24.5914 55.8979 24.0278V22.7166H56.9455C57.6618 22.7166 58.2449 22.1339 58.2449 21.4176V19.1446C58.2449 18.4283 57.6618 17.8456 56.9455 17.8456H54.108V17.4986C54.108 11.4016 59.0682 6.44141 65.1651 6.44141C65.6265 6.44141 66.0001 6.06741 66.0001 5.60645C66.0001 5.14504 65.6265 4.77148 65.1651 4.77148ZM46.7007 54.3769L47.4822 50.0699H54.759L55.54 54.3769H46.7007ZM56.0397 48.3999H46.2015V47.4828H56.0397V48.3999ZM48.2754 45.8129V45.074H53.9653V45.8129H48.2754ZM56.575 21.0467H55.837C54.9499 21.0467 54.228 21.7686 54.228 22.6557V23.3802H48.0127V22.6557C48.0127 21.7686 47.2913 21.0467 46.4041 21.0467H45.6662V19.5155H56.575V21.0467Z" fill="black"/>
<path d="M28.1709 21.772L32.8869 21.844H37.0269C40.0989 21.844 42.4029 22.444 43.9389 23.644C45.4749 24.82 46.2429 26.272 46.2429 28C46.2429 29.272 45.7509 30.412 44.7669 31.42C43.7829 32.404 42.5469 33.04 41.0589 33.328V33.472C43.2189 33.856 44.9229 34.624 46.1709 35.776C47.4189 36.928 48.0429 38.236 48.0429 39.7C48.0429 41.452 47.1189 42.94 45.2709 44.164C43.4229 45.388 40.9269 46 37.7829 46H34.2909L28.1709 46.072C27.9789 46.072 27.8829 45.868 27.8829 45.46C27.8829 45.052 27.9789 44.848 28.1709 44.848H29.7189C30.3189 44.848 30.7149 44.74 30.9069 44.524C31.0989 44.284 31.1949 43.84 31.1949 43.192V26.164C31.1949 24.052 30.9429 22.996 30.4389 22.996H28.1709C27.9789 22.996 27.8829 22.792 27.8829 22.384C27.8829 21.976 27.9789 21.772 28.1709 21.772ZM34.9029 41.392C34.9029 43.504 35.1669 44.56 35.6949 44.56H37.5309C39.5229 44.56 41.0469 44.116 42.1029 43.228C43.1589 42.34 43.6869 41.164 43.6869 39.7C43.6869 38.116 43.1349 36.856 42.0309 35.92C40.7829 34.84 38.4069 34.228 34.9029 34.084V41.392ZM34.9029 24.94V32.644C35.4789 32.74 36.1149 32.788 36.8109 32.788C38.5629 32.788 39.9189 32.356 40.8789 31.492C41.8629 30.604 42.3549 29.5 42.3549 28.18C42.3549 26.86 41.8269 25.72 40.7709 24.76C39.7149 23.776 38.1069 23.284 35.9469 23.284C35.2509 23.284 34.9029 23.836 34.9029 24.94Z" fill="black"/>
</g>
<path d="M24.4253 16.596C24.4253 16.788 24.2333 16.884 23.8493 16.884C23.4653 16.884 23.2613 16.776 23.2373 16.56C22.9493 15 22.4573 14.112 21.7613 13.896C20.5373 13.584 18.5333 13.404 15.7493 13.356C15.2693 13.38 14.9453 13.512 14.7773 13.752C14.6093 13.992 14.5253 14.412 14.5253 15.012V31.644C14.5253 33.756 14.7773 34.812 15.2813 34.812H17.3693C17.5613 34.812 17.6573 35.016 17.6573 35.424C17.6573 35.808 17.5613 36 17.3693 36L12.8333 35.964L7.79325 36.072C7.60125 36.072 7.50525 35.868 7.50525 35.46C7.50525 35.052 7.60125 34.848 7.79325 34.848H9.34125C9.94125 34.848 10.3373 34.74 10.5293 34.524C10.7213 34.284 10.8173 33.84 10.8173 33.192V16.524C10.8173 14.412 10.5773 13.356 10.0973 13.356H9.34125C6.96525 13.356 5.04525 13.536 3.58125 13.896C2.88525 14.112 2.39325 15 2.10525 16.56C2.08125 16.776 1.87725 16.884 1.49325 16.884C1.10925 16.884 0.91725 16.788 0.91725 16.596L1.20525 11.088C1.20525 10.872 1.39725 10.764 1.78125 10.764C2.16525 10.764 2.35725 10.872 2.35725 11.088V11.772C3.98925 11.82 5.48925 11.844 6.85725 11.844H17.6213C19.5653 11.844 21.3533 11.82 22.9853 11.772V11.088C22.9853 10.872 23.1773 10.764 23.5613 10.764C23.9453 10.764 24.1373 10.872 24.1373 11.088L24.4253 16.596ZM74.1713 16.596C74.1713 16.788 73.9793 16.884 73.5953 16.884C73.2113 16.884 73.0073 16.776 72.9833 16.56C72.6953 15 72.2033 14.112 71.5073 13.896C70.2833 13.584 68.2793 13.404 65.4953 13.356C65.0153 13.38 64.6913 13.512 64.5233 13.752C64.3553 13.992 64.2713 14.412 64.2713 15.012V31.644C64.2713 33.756 64.5233 34.812 65.0273 34.812H67.1153C67.3073 34.812 67.4033 35.016 67.4033 35.424C67.4033 35.808 67.3073 36 67.1153 36L62.5793 35.964L57.5393 36.072C57.3473 36.072 57.2513 35.868 57.2513 35.46C57.2513 35.052 57.3473 34.848 57.5393 34.848H59.0873C59.6873 34.848 60.0833 34.74 60.2753 34.524C60.4673 34.284 60.5633 33.84 60.5633 33.192V16.524C60.5633 14.412 60.3233 13.356 59.8433 13.356H59.0873C56.7113 13.356 54.7913 13.536 53.3273 13.896C52.6313 14.112 52.1393 15 51.8513 16.56C51.8273 16.776 51.6233 16.884 51.2393 16.884C50.8553 16.884 50.6633 16.788 50.6633 16.596L50.9513 11.088C50.9513 10.872 51.1433 10.764 51.5273 10.764C51.9113 10.764 52.1033 10.872 52.1033 11.088V11.772C53.7353 11.82 55.2353 11.844 56.6033 11.844H67.3673C69.3113 11.844 71.0993 11.82 72.7313 11.772V11.088C72.7313 10.872 72.9233 10.764 73.3073 10.764C73.6913 10.764 73.8833 10.872 73.8833 11.088L74.1713 16.596Z" fill="black"/>
<defs>
<clipPath id="clip0">
<rect width="57" height="57" fill="white" transform="translate(9)"/>
</clipPath>
</defs>
</svg>
